<?xml version="1.0" encoding="UTF-8"?>
<svg xmlns="http://www.w3.org/2000/svg" xmlns:xlink="http://www.w3.org/1999/xlink" width="640px" height="640px" viewBox="0 0 640 640" version="1.1">
<g id="surface1">
<path style=" stroke:none;fill-rule:evenodd;fill:rgb(94.901961%,94.901961%,94.901961%);fill-opacity:1;" d="M 111.753906 200.082031 L 319.386719 80.847656 L 319.859375 320.144531 Z M 111.753906 200.082031 "/>
<path style=" stroke:none;fill-rule:evenodd;fill:rgb(94.901961%,94.901961%,94.901961%);fill-opacity:1;" d="M 319.976562 320.210938 L 527.605469 200.972656 L 528.078125 440.269531 Z M 319.976562 320.210938 "/>
<path style=" stroke:none;fill-rule:evenodd;fill:rgb(94.901961%,94.901961%,94.901961%);fill-opacity:1;" d="M 112.230469 439.378906 L 319.859375 320.144531 L 320.335938 559.441406 Z M 112.230469 439.378906 "/>
<path style=" stroke:none;fill-rule:evenodd;fill:rgb(94.901961%,94.901961%,94.901961%);fill-opacity:1;" d="M 527.492188 201.039062 L 319.859375 320.277344 L 319.382812 80.980469 Z M 527.492188 201.039062 "/>
<path style=" stroke:none;fill-rule:evenodd;fill:rgb(94.901961%,94.901961%,94.901961%);fill-opacity:1;" d="M 319.859375 320.144531 L 112.230469 439.378906 L 111.753906 200.082031 Z M 319.859375 320.144531 "/>
<path style=" stroke:none;fill-rule:evenodd;fill:rgb(94.901961%,94.901961%,94.901961%);fill-opacity:1;" d="M 527.96875 440.203125 L 320.335938 559.441406 L 319.859375 320.144531 Z M 527.96875 440.203125 "/>
<path style=" stroke:none;fill-rule:evenodd;fill:rgb(65.098039%,79.215686%,91.764706%);fill-opacity:1;" d="M 168.058594 232.566406 L 319.570312 145.558594 L 319.917969 320.175781 Z M 168.058594 232.566406 "/>
<path style=" stroke:none;fill-rule:evenodd;fill:rgb(41.176471%,61.568627%,82.352941%);fill-opacity:1;" d="M 320 320.226562 L 471.515625 233.214844 L 471.859375 407.835938 Z M 320 320.226562 "/>
<path style=" stroke:none;fill-rule:evenodd;fill:rgb(23.921569%,34.509804%,63.529412%);fill-opacity:1;" d="M 168.40625 407.1875 L 319.917969 320.175781 L 320.265625 494.796875 Z M 168.40625 407.1875 "/>
<path style=" stroke:none;fill-rule:evenodd;fill:rgb(23.921569%,34.509804%,63.529412%);fill-opacity:1;" d="M 471.429688 233.261719 L 319.917969 320.273438 L 319.570312 145.652344 Z M 471.429688 233.261719 "/>
<path style=" stroke:none;fill-rule:evenodd;fill:rgb(41.176471%,61.568627%,82.352941%);fill-opacity:1;" d="M 319.917969 320.175781 L 168.40625 407.1875 L 168.058594 232.566406 Z M 319.917969 320.175781 "/>
<path style=" stroke:none;fill-rule:evenodd;fill:rgb(27.843137%,46.666667%,69.411765%);fill-opacity:1;" d="M 471.777344 407.785156 L 320.265625 494.796875 L 319.917969 320.175781 Z M 471.777344 407.785156 "/>
<path style=" stroke:none;fill-rule:evenodd;fill:rgb(0%,0%,0%);fill-opacity:1;" d="M 229.433594 350.890625 C 229.433594 329.03125 247.167969 311.3125 269.042969 311.3125 C 290.914062 311.3125 308.648438 329.03125 308.648438 350.890625 C 308.648438 372.746094 290.914062 390.46875 269.042969 390.46875 C 247.167969 390.46875 229.433594 372.746094 229.433594 350.890625 Z M 240.703125 350.890625 C 240.703125 366.527344 253.390625 379.207031 269.042969 379.207031 C 284.691406 379.207031 297.378906 366.527344 297.378906 350.890625 C 297.378906 335.25 284.691406 322.574219 269.042969 322.574219 C 253.390625 322.574219 240.703125 335.25 240.703125 350.890625 Z M 240.703125 350.890625 "/>
<path style=" stroke:none;fill-rule:evenodd;fill:rgb(0%,0%,0%);fill-opacity:1;" d="M 331.351562 350.890625 C 331.351562 329.03125 349.085938 311.3125 370.957031 311.3125 C 392.832031 311.3125 410.566406 329.03125 410.566406 350.890625 C 410.566406 372.746094 392.832031 390.46875 370.957031 390.46875 C 349.085938 390.46875 331.351562 372.746094 331.351562 350.890625 Z M 342.621094 350.890625 C 342.621094 366.527344 355.308594 379.207031 370.957031 379.207031 C 386.609375 379.207031 399.296875 366.527344 399.296875 350.890625 C 399.296875 335.25 386.609375 322.574219 370.957031 322.574219 C 355.308594 322.574219 342.621094 335.25 342.621094 350.890625 Z M 342.621094 350.890625 "/>
<path style=" stroke:none;fill-rule:evenodd;fill:rgb(0%,0%,0%);fill-opacity:1;" d="M 283.773438 271.734375 C 301.78125 271.734375 316.378906 286.378906 316.378906 304.441406 C 316.378906 317.988281 308.167969 329.609375 296.464844 334.574219 L 295.410156 334.960938 L 295.214844 333.886719 C 292.953125 324.699219 283.164062 317.789062 271.4375 317.789062 C 266.410156 317.789062 261.738281 319.058594 257.863281 321.230469 L 256.429688 322.214844 L 255.105469 320.03125 C 252.59375 315.394531 251.167969 310.085938 251.167969 304.441406 C 251.167969 286.378906 265.765625 271.734375 283.773438 271.734375 Z M 283.773438 271.734375 "/>
<path style=" stroke:none;fill-rule:evenodd;fill:rgb(0%,0%,0%);fill-opacity:1;" d="M 356.226562 271.734375 C 374.234375 271.734375 388.832031 286.3125 388.832031 304.292969 C 388.832031 309.914062 387.40625 315.203125 384.894531 319.816406 L 383.882812 321.480469 L 380.609375 319.695312 C 376.960938 318.070312 372.5625 317.121094 367.824219 317.121094 C 355.195312 317.121094 344.957031 323.875 344.957031 332.210938 C 344.957031 332.734375 345 333.246094 345.078125 333.753906 L 345.355469 334.960938 L 343.535156 334.296875 C 331.832031 329.355469 323.621094 317.78125 323.621094 304.292969 C 323.621094 286.3125 338.21875 271.734375 356.226562 271.734375 Z M 356.226562 271.734375 "/>
<path style=" stroke:none;fill-rule:evenodd;fill:rgb(0%,0%,0%);fill-opacity:1;" d="M 278.703125 267.148438 C 278.703125 257.6875 286.378906 250.015625 295.847656 250.015625 C 305.320312 250.015625 312.996094 257.6875 312.996094 267.148438 C 312.996094 276.613281 305.320312 284.285156 295.847656 284.285156 C 286.378906 284.285156 278.703125 276.613281 278.703125 267.148438 Z M 278.703125 267.148438 "/>
<path style=" stroke:none;fill-rule:evenodd;fill:rgb(0%,0%,0%);fill-opacity:1;" d="M 327.003906 267.148438 C 327.003906 257.6875 334.679688 250.015625 344.152344 250.015625 C 353.621094 250.015625 361.296875 257.6875 361.296875 267.148438 C 361.296875 276.613281 353.621094 284.285156 344.152344 284.285156 C 334.679688 284.285156 327.003906 276.613281 327.003906 267.148438 Z M 327.003906 267.148438 "/>
<path style=" stroke:none;fill-rule:evenodd;fill:rgb(0%,0%,0%);fill-opacity:1;" d="M 280.648438 259.589844 L 302.695312 269.738281 L 292.675781 291.46875 L 270.632812 281.316406 Z M 280.648438 259.589844 "/>
<path style=" stroke:none;fill-rule:nonzero;fill:rgb(0%,0%,0%);fill-opacity:1;" d="M 359.4375 259.589844 L 337.394531 269.742188 L 347.410156 291.46875 L 369.457031 281.316406 Z M 359.4375 259.589844 "/>
<path style=" stroke:none;fill-rule:nonzero;fill:rgb(0%,0%,0%);fill-opacity:1;" d="M 351.15625 266.425781 L 327.003906 266.425781 L 327.003906 290.074219 L 351.15625 290.074219 Z M 351.15625 266.425781 "/>
<path style=" stroke:none;fill-rule:nonzero;fill:rgb(0%,0%,0%);fill-opacity:1;" d="M 312.996094 266.425781 L 288.84375 266.425781 L 288.84375 290.074219 L 312.996094 290.074219 Z M 312.996094 266.425781 "/>
<path style=" stroke:none;fill-rule:nonzero;fill:rgb(0%,0%,0%);fill-opacity:1;" d="M 263.753906 294.039062 L 254.585938 289.691406 L 230.902344 339.539062 L 240.074219 343.890625 Z M 263.753906 294.039062 "/>
<path style=" stroke:none;fill-rule:evenodd;fill:rgb(0%,0%,0%);fill-opacity:1;" d="M 377.675781 297.449219 L 386.84375 293.101562 L 409.289062 340.347656 L 400.121094 344.695312 Z M 377.675781 297.449219 "/>
<path style=" stroke:none;fill-rule:nonzero;fill:rgb(0%,0%,0%);fill-opacity:1;" d="M 301.402344 292.488281 L 339.078125 292.488281 L 339.078125 355.714844 L 301.402344 355.714844 Z M 301.402344 292.488281 "/>
</g>
</svg>
